<svg width="7px" height="12px" viewBox="0 0 7 12" version="1.1" xmlns="http://www.w3.org/2000/svg" xmlns:xlink="http://www.w3.org/1999/xlink">
    <title>Path</title>
    <g id="maquettes" stroke="none" stroke-width="1" fill="none" fill-rule="evenodd">
        <g id="page-PROJECT-details" transform="translate(-403.000000, -2705.000000)" fill="#000000" fill-rule="nonzero" stroke="#000000">
            <g id="FICHE-ALUMNI" transform="translate(-1.000000, -3.000000)">
                <g id="links" transform="translate(213.000000, 2385.000000)">
                    <path d="M197.290554,328.779061 L192.540557,324.09156 C192.416849,323.96948 192.216459,323.96948 192.092781,324.09156 C191.969073,324.21364 191.969073,324.411394 192.092781,324.533445 L196.302228,328.687508 L196.302228,329.312528 L192.092781,333.466562 C191.969073,333.588642 191.969073,333.786396 192.092781,333.908447 C192.15462,333.969473 192.235667,334 192.316684,334 C192.397701,334 192.478718,333.969473 192.540587,333.908447 L197.290583,329.220946 C197.414261,329.098895 197.414261,328.901141 197.290554,328.779061 Z" id="Path" transform="translate(194.691669, 329.000000) scale(1, -1) translate(-194.691669, -329.000000) "></path>
                </g>
            </g>
        </g>
    </g>
</svg>