<?xml version="1.0" encoding="UTF-8"?>
<svg width="25px" height="42px" viewBox="0 0 25 42" version="1.1" xmlns="http://www.w3.org/2000/svg" xmlns:xlink="http://www.w3.org/1999/xlink">
    <title>mobile-phone</title>
    <g id="maquettes" stroke="none" stroke-width="1" fill="none" fill-rule="evenodd">
        <g id="Scholarships-&amp;-Study-opportunities" transform="translate(-1056.000000, -1616.000000)" fill="#FFFFFF" fill-rule="nonzero">
            <g id="Group-4" transform="translate(0.000000, 1266.000000)">
                <g id="Group-11" transform="translate(1003.000000, 164.000000)">
                    <g id="mobile-phone" transform="translate(53.000000, 186.000000)">
                        <path d="M22.5609756,42 L2.43902439,42 C1.09198842,42 0,40.9254834 0,39.6 L0,2.4 C0,1.0745166 1.09198842,0 2.43902439,0 L22.5609756,0 C23.9080116,0 25,1.0745166 25,2.4 L25,39.6 C25,40.9254834 23.9080116,42 22.5609756,42 Z M2.43902439,1.2 C1.7655064,1.2 1.2195122,1.7372583 1.2195122,2.4 L1.2195122,39.6 C1.2195122,40.2627417 1.7655064,40.8 2.43902439,40.8 L22.5609756,40.8 C23.2344936,40.8 23.7804878,40.2627417 23.7804878,39.6 L23.7804878,2.4 C23.7804878,1.7372583 23.2344936,1.2 22.5609756,1.2 L2.43902439,1.2 Z" id="Shape"></path>
                        <path d="M24.3902439,6 L0.609756098,6 C0.272997104,6 0,5.77614237 0,5.5 C0,5.22385763 0.272997104,5 0.609756098,5 L24.3902439,5 C24.7270029,5 25,5.22385763 25,5.5 C25,5.77614237 24.7270029,6 24.3902439,6 Z" id="Path"></path>
                        <path d="M24.3902439,34 L0.609756098,34 C0.272997104,34 0,33.7761424 0,33.5 C0,33.2238576 0.272997104,33 0.609756098,33 L24.3902439,33 C24.7270029,33 25,33.2238576 25,33.5 C25,33.7761424 24.7270029,34 24.3902439,34 Z" id="Path"></path>
                        <path d="M12,39 C10.8954305,39 10,38.1045695 10,37 C10,35.8954305 10.8954305,35 12,35 C13.1045695,35 14,35.8954305 14,37 C13.9988045,38.1040739 13.1040739,38.9988045 12,39 L12,39 Z M12,36.085141 C11.6297054,36.085141 11.2958826,36.3082302 11.1542277,36.6503588 C11.0125728,36.9924874 11.0909901,37.3862603 11.3529055,37.6480205 C11.6148209,37.9097808 12.0086402,37.9879647 12.3506848,37.8461071 C12.6927294,37.7042495 12.9156207,37.3702945 12.9154015,37 C12.9148031,36.4947736 12.5052267,36.0854398 12,36.085141 Z" id="Shape"></path>
                        <path d="M14.4,4 L9.6,4 C9.26862915,4 9,3.77614237 9,3.5 C9,3.22385763 9.26862915,3 9.6,3 L14.4,3 C14.7313708,3 15,3.22385763 15,3.5 C15,3.77614237 14.7313708,4 14.4,4 Z" id="Path"></path>
                    </g>
                </g>
            </g>
        </g>
    </g>
</svg>