<?xml version="1.0" encoding="UTF-8"?>
<svg width="60px" height="60px" viewBox="0 0 60 60" version="1.1" xmlns="http://www.w3.org/2000/svg" xmlns:xlink="http://www.w3.org/1999/xlink">
    <title>bouton search</title>
    <g id="maquettes" stroke="none" stroke-width="1" fill="none" fill-rule="evenodd">
        <g id="Scholarships-&amp;-Study-opportunities" transform="translate(-893.000000, -2965.000000)" fill="#FFFFFF" fill-rule="nonzero">
            <g id="MAP-BLOC-CATALOG" transform="translate(11.000000, 2364.000000)">
                <g id="Group-14" transform="translate(865.000000, 207.000000)">
                    <g id="Group-15" transform="translate(1.000000, 385.000000)">
                        <g id="bouton-search" transform="translate(16.000000, 9.000000)">
                            <path d="M41.7939793,40.4669358 L35.903164,34.5762266 C37.3674216,32.8154079 38.2495799,30.5543225 38.2495799,28.0906529 C38.2495799,22.4886168 33.6921374,17.9310345 28.0903697,17.9310345 C22.4884769,17.9310345 17.9310345,22.4886168 17.9310345,28.0906529 C17.9310345,33.6923136 22.4884769,38.2495206 28.0903697,38.2495206 C30.5539062,38.2495206 32.8151094,37.3674846 34.5759224,35.9032222 L40.4668628,41.7940566 C40.6500514,41.9773709 40.8902988,42.0689655 41.130421,42.0689655 C41.3705433,42.0689655 41.6107906,41.9773709 41.7941044,41.7940566 C42.1606067,41.427553 42.1606067,40.8334394 41.7939793,40.4669358 Z M19.807967,28.0906529 C19.807967,23.5235608 23.5234175,19.8079731 28.0903697,19.8079731 C32.6571968,19.8079731 36.3725222,23.5235608 36.3725222,28.0906529 C36.3725222,32.6573697 32.6571968,36.372582 28.0903697,36.372582 C23.5234175,36.372582 19.807967,32.6573697 19.807967,28.0906529 Z" id="Shape"></path>
                        </g>
                    </g>
                </g>
            </g>
        </g>
    </g>
</svg>