<?xml version="1.0" encoding="UTF-8"?>
<svg width="41px" height="41px" viewBox="0 0 41 41" version="1.1" xmlns="http://www.w3.org/2000/svg" xmlns:xlink="http://www.w3.org/1999/xlink">
    <title>twitter</title>
    <g id="Symbols" stroke="none" stroke-width="1" fill="none" fill-rule="evenodd">
        <g id="FOOTER-3" transform="translate(-150.000000, -102.000000)">
            <g id="twitter" transform="translate(150.000000, 102.000000)">
                <circle id="Oval" fill="#151515" cx="20.5" cy="20.5" r="20.5"></circle>
                <g transform="translate(10.135012, 13.000000)" fill="#FFFFFF" fill-rule="nonzero" id="Path">
                    <path d="M19.707238,4.23953846 C20.561238,3.63538462 21.279613,2.88128205 21.864988,2.01297436 L21.864988,2.01210256 C21.083613,2.35297436 20.252363,2.57964103 19.384363,2.68948718 C20.276863,2.1585641 20.958488,1.32425641 21.278738,0.319076923 C20.446613,0.813384615 19.527863,1.16210256 18.548738,1.35738462 C17.758613,0.518717949 16.632488,0 15.403988,0 C13.020488,0 11.101613,1.92753846 11.101613,4.29010256 C11.101613,4.63010256 11.130488,4.95702564 11.201363,5.26825641 C7.62261301,5.09389744 4.45511301,3.38517949 2.32711301,0.781128205 C1.95611301,1.42364103 1.73736301,2.1585641 1.73736301,2.94928205 C1.73736301,4.43482051 2.50473801,5.75123077 3.65011301,6.51405128 C2.95798801,6.50097436 2.27986301,6.30046154 1.70498801,5.98574359 L1.70498801,6.03282051 C1.70498801,8.11728205 3.19686301,9.84866667 5.15423801,10.2479487 C4.80336301,10.3438462 4.42186301,10.3891795 4.02548801,10.3891795 C3.74986301,10.3891795 3.47161301,10.3734872 3.21086301,10.3159487 C3.76823801,12.0142051 5.35198801,13.2634872 7.23323801,13.3044615 C5.76848801,14.445641 3.90823801,15.1334872 1.89486301,15.1334872 C1.54223801,15.1334872 1.20361301,15.1177949 0.86498801,15.0750769 C2.77248801,16.2999487 5.03173801,17 7.46948801,17 C15.067113,17 20.018738,10.6847179 19.707238,4.23953846 Z"></path>
                </g>
            </g>
        </g>
    </g>
</svg>