<?xml version="1.0" encoding="UTF-8"?>
<svg width="41px" height="41px" viewBox="0 0 41 41" version="1.1" xmlns="http://www.w3.org/2000/svg" xmlns:xlink="http://www.w3.org/1999/xlink">
    <title>youtube</title>
    <g id="Symbols" stroke="none" stroke-width="1" fill="none" fill-rule="evenodd">
        <g id="FOOTER-3" transform="translate(-229.000000, -102.000000)">
            <g id="youtube" transform="translate(229.000000, 102.000000)">
                <circle id="Oval" fill="#151515" cx="20.5" cy="20.5" r="20.5"></circle>
                <g id="youtube(1)" transform="translate(8.621528, 13.000000)" fill="#FFFFFF" fill-rule="nonzero">
                    <path d="M22.5870023,2.50361768 C22.3249963,1.52462647 21.557019,0.752898496 20.5831005,0.4892864 C18.8038745,0 11.6868315,0 11.6868315,0 C11.6868315,0 4.57006597,0 2.79083991,0.470735891 C1.83565598,0.73406905 1.04894415,1.52476594 0.786938158,2.50361768 C0.31871345,4.29171678 0.31871345,8 0.31871345,8 C0.31871345,8 0.31871345,11.7269732 0.786938158,13.4963823 C1.04922168,14.4752341 1.81692144,15.246962 2.79097868,15.5105741 C4.58880048,16 11.687109,16 11.687109,16 C11.687109,16 18.8038745,16 20.5831005,15.5292641 C21.5571578,15.2657914 22.3249963,14.4940635 22.5872798,13.5152118 C23.0554614,11.7269732 23.0554614,8.01882945 23.0554614,8.01882945 C23.0554614,8.01882945 23.0741003,4.29171678 22.5870023,2.50361768 L22.5870023,2.50361768 Z M9.42092372,11.4258416 L9.42092372,4.57415836 L15.339095,8 L9.42092372,11.4258416 Z" id="Shape"></path>
                </g>
            </g>
        </g>
    </g>
</svg>